# xmcd CD database file
#
# Track frame offsets:
#	150
#	20782
#	36359
#	58712
#	91437
#	114844
#	141851
#	162148
#	187486
#	212346
#	240596
#
# Disc length: 3730 seconds
#
# Revision: 0
# Processed by: cddbd v1.4PL0 Copyright (c) Steve Scherf et al.
# Submitted via: CDex 1.50beta9
#
DISCID=990e900b
DTITLE=CUBA - les maitres de la salsa
DYEAR=1999
DGENRE=Salsa
TTITLE0=Bobby Carcasses - mango mangue
TTITLE1=5u4 - Hasta siempre command
TTITLE2=andy gola y colé colé - que manera de quererte
TTITLE3=candido fabre y su banda - exitos de fabré
TTITLE4=son 14 with tiburon - rebolquera
TTITLE5=juan carlos alfonso y su dan den - y to tuyo que ?
TTITLE6=descarga monica lypso - descarga
TTITLE7=conjunto cespedes - oye mira y calla
TTITLE8=mario bauza - son cubano
TTITLE9=charlie palmieri - fiesta a la king
TTITLE10=irakere - concierto para metales
EXTD=YEAR: 1999
EXTT0=
EXTT1=
EXTT2=
EXTT3=
EXTT4=
EXTT5=
EXTT6=
EXTT7=
EXTT8=
EXTT9=
EXTT10=
PLAYORDER=
